# xmcd
# Track frame offsets:
# 150
# 16100
# 36360
# 58175
# 75292
# 99087
# 118582
# 134265
# 150662
# 166202
#
# Disc length: 2622 seconds
# Revision: 2
# Processed by: cddbd v1.4PL0 Copyright (c) Steve Scherf et al.
# Submitted via: VisiTrax 2.9.5.181 - For more info visit www.synapsa.com
#
DISCID=6c0a3c0a
DTITLE=Charlie Daniels - America, I Believe In You
DYEAR=1993
DGENRE=
TTITLE0=All Night Long
TTITLE1=Troubles Of My Own
TTITLE2=Tennessee Two Step
TTITLE3=The Girl Next Door
TTITLE4=America, I Believe In You
TTITLE5=Oh Juanita
TTITLE6=Sweet Little Country Girl
TTITLE7=Alley Cat
TTITLE8=What You Gonna Do About Me
TTITLE9=San Miguel
EXTD=
EXTT0=
EXTT1=
EXTT2=
EXTT3=
EXTT4=
EXTT5=
EXTT6=
EXTT7=
EXTT8=
EXTT9=
PLAYORDER=
